HIERARCHY
ROOT Pelvis
{
	OFFSET 0.000000 0.000000 0.000000
	CHANNELS 6 Xposition Yposition Zposition Xrotation Yrotation Zrotation
	JOINT LeftUpLeg_virtual
	{
		OFFSET 0.000000 0.000000 0.000000
		CHANNELS 3 Xrotation Yrotation Zrotation
		JOINT LeftUpLeg
		{
			OFFSET 18.735201 -5.666702 -4.541200
			CHANNELS 3 Xrotation Yrotation Zrotation
			JOINT LeftLeg
			{
				OFFSET -0.021200 -31.938179 0.493100
				CHANNELS 3 Xrotation Yrotation Zrotation
				JOINT LeftFoot
				{
					OFFSET 0.021200 -31.938179 -4.336299
					CHANNELS 3 Xrotation Yrotation Zrotation
					JOINT LeftToeBase
					{
						OFFSET 0.943001 -26.722000 15.023500
						CHANNELS 3 Xrotation Yrotation Zrotation
						End Site
						{
							OFFSET 0 0 0
						}
					}
				}
			}
		}
	}
	JOINT RightUpLeg_virtual
	{
		OFFSET 0.000000 0.000000 0.000000
		CHANNELS 3 Xrotation Yrotation Zrotation
		JOINT RightUpLeg
		{
			OFFSET -18.735201 -5.666702 -4.541200
			CHANNELS 3 Xrotation Yrotation Zrotation
			JOINT RightLeg
			{
				OFFSET 0.018946 -31.938133 0.493100
				CHANNELS 3 Xrotation Yrotation Zrotation
				JOINT RightFoot
				{
					OFFSET -0.018946 -31.938126 -4.336299
					CHANNELS 3 Xrotation Yrotation Zrotation
					JOINT RightToeBase
					{
						OFFSET -0.943001 -26.722004 15.023500
						CHANNELS 3 Xrotation Yrotation Zrotation
						End Site
						{
							OFFSET 0 0 0
						}
					}
				}
			}
		}
	}
	JOINT Hips_virtual
	{
		OFFSET 0.000000 0.000000 0.000000
		CHANNELS 3 Xrotation Yrotation Zrotation
		JOINT Hips
		{
			OFFSET -0.000000 -0.000000 -0.000000
			CHANNELS 3 Xrotation Yrotation Zrotation
			JOINT Spine
			{
				OFFSET 0.000000 10.199997 -0.299500
				CHANNELS 3 Xrotation Yrotation Zrotation
				JOINT Spine1
				{
					OFFSET 0.000000 11.900002 -1.516600
					CHANNELS 3 Xrotation Yrotation Zrotation
					JOINT Spine2
					{
						OFFSET 0.000000 13.600006 -2.842500
						CHANNELS 3 Xrotation Yrotation Zrotation
						JOINT Neck_virtual
						{
							OFFSET 0.000000 0.000000 0.000000
							CHANNELS 3 Xrotation Yrotation Zrotation
							JOINT Neck
							{
								OFFSET 0.000000 9.624100 -2.890100
								CHANNELS 3 Xrotation Yrotation Zrotation
								JOINT Head
								{
									OFFSET 0.000000 14.068802 -1.351900
									CHANNELS 3 Xrotation Yrotation Zrotation
									End Site
									{
										OFFSET 0 0 0
									}
								}
							}
						}
						JOINT LeftShoulder_virtual
						{
							OFFSET 0.000000 0.000000 0.000000
							CHANNELS 3 Xrotation Yrotation Zrotation
							JOINT LeftShoulder
							{
								OFFSET 15.263000 10.923401 -0.547700
								CHANNELS 3 Xrotation Yrotation Zrotation
								JOINT LeftArm
								{
									OFFSET 25.438599 -2.830597 -13.032500
									CHANNELS 3 Xrotation Yrotation Zrotation
									JOINT LeftForeArm
									{
										OFFSET 29.960503 0.000000 0.000000
										CHANNELS 3 Xrotation Yrotation Zrotation
										JOINT LeftHand
										{
											OFFSET 27.849251 0.000000 0.000000
											CHANNELS 3 Xrotation Yrotation Zrotation
											End Site
											{
												OFFSET 0 0 0
											}
										}
									}
								}
							}
						}
						JOINT RightShoulder_virtual
						{
							OFFSET 0.000000 0.000000 0.000000
							CHANNELS 3 Xrotation Yrotation Zrotation
							JOINT RightShoulder
							{
								OFFSET -15.263000 10.923401 -0.547700
								CHANNELS 3 Xrotation Yrotation Zrotation
								JOINT RightArm
								{
									OFFSET -25.438599 -2.830597 -13.032500
									CHANNELS 3 Xrotation Yrotation Zrotation
									JOINT RightForeArm
									{
										OFFSET -29.960503 0.000000 0.000000
										CHANNELS 3 Xrotation Yrotation Zrotation
										JOINT RightHand
										{
											OFFSET -27.849251 0.000000 0.000000
											CHANNELS 3 Xrotation Yrotation Zrotation
											End Site
											{
												OFFSET 0 0 0
											}
										}
									}
								}
							}
						}
					}
				}
			}
		}
	}
}
MOTION
Frames: 12
Frame Time: 0.03333333
-0.331529 94.695076 4.074327 0.000000 0.000000 0.000000 2.827924 -5.519556 -1.305907 -18.093554 16.154466 13.419653 23.574166 9.266053 5.143335 -7.065236 4.252220 -13.807288 0.000000 0.000000 0.000000 2.827924 -5.519556 -1.305907 -17.162618 -20.600127 -7.239150 21.458552 10.019033 -3.389145 -8.047494 0.715987 5.515331 0.000000 0.000000 0.000000 2.827924 -5.519556 -1.305907 0.000000 0.000000 0.000000 -0.411648 -1.018122 1.159563 -1.124193 -0.763623 0.960462 0.000000 0.000000 0.000000 -1.125714 -0.723788 0.985440 -1.959656 0.611591 -0.195579 0.000000 0.000000 0.000000 -1.125714 -0.723788 0.985440 -1.469254 10.517229 -4.984829 43.879659 -68.213714 -24.791765 0.000009 -21.268115 -0.000001 0.000000 0.000000 0.000000 -1.125714 -0.723788 0.985440 3.669364 5.665988 1.464133 -1.701521 36.578661 65.584959 -0.000005 22.959771 0.000012 0.000000 0.000000 0.000000 
-0.307853 94.696800 4.066883 0.000000 0.000000 0.000000 2.805417 -5.478700 -1.284329 -18.072790 16.152856 13.395347 23.568394 9.259595 5.090807 -7.061269 4.219715 -13.752768 0.000000 0.000000 0.000000 2.805417 -5.478700 -1.284329 -17.179772 -20.621712 -7.309446 21.502907 10.019459 -3.380810 -8.068471 0.718714 5.525652 0.000000 0.000000 0.000000 2.805417 -5.478700 -1.284329 0.000000 0.000000 0.000000 -0.421247 -1.058329 1.157061 -1.133012 -0.794374 0.957289 0.000000 0.000000 0.000000 -1.134493 -0.754701 0.983290 -1.966257 0.619845 -0.187580 0.000000 0.000000 0.000000 -1.134493 -0.754701 0.983290 -1.470419 10.513380 -4.967265 43.640172 -68.242817 -25.097597 -0.000012 -21.297116 -0.000003 0.000000 0.000000 0.000000 -1.134493 -0.754701 0.983290 3.665457 5.656877 1.475269 -1.703468 36.697548 65.596727 -0.000005 22.913184 -0.000006 0.000000 0.000000 0.000000 
-0.282561 94.697350 4.059322 0.000000 0.000000 0.000000 2.785630 -5.440869 -1.255081 -18.049000 16.155878 13.358633 23.555948 9.253645 5.042825 -7.053872 4.188186 -13.697679 0.000000 0.000000 0.000000 2.785630 -5.440869 -1.255081 -17.216274 -20.643593 -7.394378 21.568576 10.019863 -3.373772 -8.099797 0.727472 5.537168 0.000000 0.000000 0.000000 2.785630 -5.440869 -1.255081 0.000000 0.000000 0.000000 -0.426232 -1.096089 1.151940 -1.138106 -0.823449 0.951492 0.000000 0.000000 0.000000 -1.139511 -0.784102 0.978433 -1.976230 0.629178 -0.180623 0.000000 0.000000 0.000000 -1.139511 -0.784102 0.978433 -1.471644 10.508769 -4.946810 43.432097 -68.283143 -25.363716 0.000005 -21.330126 0.000016 0.000000 0.000000 0.000000 -1.139511 -0.784102 0.978433 3.663050 5.650920 1.476511 -1.717205 36.859580 65.610326 -0.000015 22.842784 0.000005 0.000000 0.000000 0.000000 
-0.253604 94.696045 4.051781 0.000000 0.000000 0.000000 2.774126 -5.412852 -1.213030 -18.021058 16.178573 13.300574 23.527143 9.249502 5.007174 -7.044072 4.153682 -13.643981 0.000000 0.000000 0.000000 2.774126 -5.412852 -1.213030 -17.288793 -20.654712 -7.501143 21.666578 10.020069 -3.367801 -8.140668 0.740743 5.550540 0.000000 0.000000 0.000000 2.774126 -5.412852 -1.213030 0.000000 0.000000 0.000000 -0.424723 -1.129535 1.143471 -1.138050 -0.849448 0.942093 0.000000 0.000000 0.000000 -1.139338 -0.810645 0.969838 -1.991998 0.639403 -0.175441 0.000000 0.000000 0.000000 -1.139338 -0.810645 0.969838 -1.472791 10.501846 -4.921265 43.262804 -68.342251 -25.576287 -0.000006 -21.363954 -0.000034 0.000000 0.000000 0.000000 -1.139338 -0.810645 0.969838 3.662694 5.649605 1.468053 -1.746193 37.070678 65.621589 -0.000022 22.738581 0.000035 0.000000 0.000000 0.000000 
-0.218730 94.691437 4.044313 0.000000 0.000000 0.000000 2.776527 -5.403064 -1.152988 -17.993035 16.237303 13.213650 23.480565 9.247928 4.992306 -7.034061 4.112278 -13.593457 0.000000 0.000000 0.000000 2.776527 -5.403064 -1.152988 -17.414856 -20.638299 -7.636914 21.811540 10.020186 -3.361666 -8.195713 0.753349 5.566255 0.000000 0.000000 0.000000 2.776527 -5.403064 -1.152988 0.000000 0.000000 0.000000 -0.414783 -1.156147 1.130821 -1.131373 -0.870494 0.928005 0.000000 0.000000 0.000000 -1.132506 -0.832501 0.956358 -2.016123 0.650045 -0.172783 0.000000 0.000000 0.000000 -1.132506 -0.832501 0.956358 -1.473701 10.490593 -4.887725 43.137678 -68.429131 -25.722624 -0.000001 -21.393974 0.000020 0.000000 0.000000 0.000000 -1.132506 -0.832501 0.956358 3.664919 5.654362 1.451227 -1.796763 37.337106 65.625086 -0.000003 22.587656 0.000011 0.000000 0.000000 0.000000 
-0.175821 94.682533 4.036770 0.000000 0.000000 0.000000 2.795632 -5.419068 -1.070771 -17.966124 16.345447 13.091972 23.415874 9.249621 5.003402 -7.025831 4.062354 -13.546292 0.000000 0.000000 0.000000 2.795632 -5.419068 -1.070771 -17.606056 -20.576706 -7.806744 22.014033 10.019964 -3.353183 -8.266891 0.758663 5.584295 0.000000 0.000000 0.000000 2.795632 -5.419068 -1.070771 0.000000 0.000000 0.000000 -0.394608 -1.172796 1.112966 -1.116680 -0.884227 0.908082 0.000000 0.000000 0.000000 -1.117626 -0.847350 0.936770 -2.051407 0.660470 -0.173335 0.000000 0.000000 0.000000 -1.117626 -0.847350 0.936770 -1.474197 10.472465 -4.842515 43.059056 -68.553113 -25.792737 0.000000 -21.414719 0.000009 0.000000 0.000000 0.000000 -1.117626 -0.847350 0.936770 3.670159 5.666504 1.428727 -1.879351 37.666089 65.614287 -0.000011 22.373975 0.000012 0.000000 0.000000 0.000000 
-0.123328 94.669403 4.028654 0.000000 0.000000 0.000000 2.828403 -5.464492 -0.964130 -17.932754 16.507456 12.931624 23.329737 9.254340 5.038558 -7.019537 4.007309 -13.499514 0.000000 0.000000 0.000000 2.828403 -5.464492 -0.964130 -17.863935 -20.458643 -8.013960 22.279012 10.019515 -3.340269 -8.353497 0.752168 5.604930 0.000000 0.000000 0.000000 2.828403 -5.464492 -0.964130 0.000000 0.000000 0.000000 -0.362723 -1.175794 1.088758 -1.092778 -0.887816 0.881204 0.000000 0.000000 0.000000 -1.093512 -0.852413 0.909865 -2.100537 0.669771 -0.177590 0.000000 0.000000 0.000000 -1.093512 -0.852413 0.909865 -1.474091 10.444455 -4.781209 43.025236 -68.723471 -25.781319 -0.000001 -21.419734 0.000001 0.000000 0.000000 0.000000 -1.093512 -0.852413 0.909865 3.678724 5.687032 1.404696 -2.010108 38.066625 65.582527 0.000002 22.077844 0.000021 0.000000 0.000000 0.000000 
-0.060431 94.653259 4.019186 0.000000 0.000000 0.000000 2.865184 -5.536815 -0.833114 -17.879682 16.713890 12.731584 23.222653 9.260859 5.087843 -7.015256 3.957080 -13.446827 0.000000 0.000000 0.000000 2.865184 -5.536815 -0.833114 -18.175490 -20.287024 -8.259545 22.601494 10.018928 -3.323074 -8.455232 0.735987 5.630037 0.000000 0.000000 0.000000 2.865184 -5.536815 -0.833114 0.000000 -0.000001 0.000000 -0.318142 -1.160972 1.056918 -1.058795 -0.878070 0.846343 0.000000 0.000000 0.000000 -1.059307 -0.844538 0.874529 -2.165869 0.676858 -0.185737 0.000000 0.000000 0.000000 -1.059307 -0.844538 0.874529 -1.473193 10.403189 -4.698692 43.030639 -68.948697 -25.688193 0.000011 -21.402370 0.000007 0.000000 0.000000 0.000000 -1.059307 -0.844538 0.874529 3.690701 5.716536 1.384675 -2.212118 38.550749 65.523323 -0.000012 21.675595 0.000009 0.000000 0.000000 0.000000 
0.013176 94.636185 4.007465 0.000000 0.000000 0.000000 2.892326 -5.627821 -0.679482 -17.789424 16.943519 12.492496 23.094463 9.267258 5.134844 -7.008904 3.925033 -13.378676 0.000000 0.000000 0.000000 2.892326 -5.627821 -0.679482 -18.521555 -20.082324 -8.544191 22.972655 10.018211 -3.306512 -8.569995 0.722233 5.663740 0.000000 0.000000 0.000000 2.892326 -5.627821 -0.679482 0.000000 0.000000 0.000000 -0.260512 -1.123972 1.016188 -1.014297 -0.851583 0.802675 0.000000 0.000000 0.000000 -1.014596 -0.820323 0.829836 -2.249076 0.680500 -0.197525 0.000000 0.000000 0.000000 -1.014596 -0.820323 0.829836 -1.471302 10.345029 -4.589335 43.065429 -69.235736 -25.520046 -0.000013 -21.356436 0.000002 0.000000 0.000000 0.000000 -1.014596 -0.820323 0.829836 3.705969 5.755085 1.375350 -2.516299 39.134805 65.431395 0.000005 21.139789 -0.000011 0.000000 0.000000 0.000000 
0.097601 94.620689 3.992949 0.000000 0.000000 0.000000 2.898735 -5.726043 -0.505406 -17.644781 17.171965 12.215444 22.939342 9.271595 5.161477 -6.994749 3.922263 -13.285098 0.000000 0.000000 0.000000 2.898735 -5.726043 -0.505406 -18.882517 -19.879201 -8.868540 23.376970 10.017198 -3.300744 -8.694649 0.731990 5.713166 0.000000 0.000000 0.000000 2.898735 -5.726043 -0.505406 0.000000 0.000000 0.000000 -0.190256 -1.060445 0.965497 -0.959354 -0.804964 0.749684 0.000000 0.000000 0.000000 -0.959467 -0.776392 0.775185 -2.351034 0.679409 -0.212168 0.000000 0.000000 0.000000 -0.959467 -0.776392 0.775185 -1.468198 10.266309 -4.447203 43.115439 -69.589123 -25.290886 0.000002 -21.276692 0.000026 0.000000 0.000000 0.000000 -0.959467 -0.776392 0.775185 3.724138 5.802213 1.384087 -2.961398 39.840896 65.303883 0.000010 20.439382 -0.000028 0.000000 0.000000 0.000000 
0.193305 94.608162 3.975916 0.000000 0.000000 0.000000 2.883028 -5.820589 -0.312501 -17.445382 17.380379 11.903867 22.757734 9.272348 5.153480 -6.966595 3.950557 -13.157968 0.000000 0.000000 0.000000 2.883028 -5.820589 -0.312501 -19.252374 -19.714147 -9.234680 23.803276 10.015703 -3.317365 -8.826517 0.788267 5.785757 0.000000 0.000000 0.000000 2.883028 -5.820589 -0.312501 0.000000 0.000000 0.000000 -0.108574 -0.966512 0.903900 -0.894590 -0.735101 0.687202 0.000000 0.000000 0.000000 -0.894563 -0.709604 0.710331 -2.471465 0.672396 -0.228289 0.000000 0.000000 0.000000 -0.894563 -0.709604 0.710331 -1.463625 10.163497 -4.266365 43.162465 -70.010163 -25.022543 -0.000000 -21.159733 -0.000002 0.000000 0.000000 0.000000 -0.894563 -0.709604 0.710331 3.744584 5.856910 1.418331 -3.593249 40.698707 65.141502 -0.000007 19.540726 0.000034 0.000000 0.000000 0.000000 
0.262385 94.601151 3.965313 0.000000 0.000000 0.000000 2.863674 -5.917768 -0.154204 -17.236710 17.511017 11.641210 22.582373 9.271199 5.129954 -6.931955 4.038778 -13.053045 0.000000 0.000000 0.000000 2.863674 -5.917768 -0.154204 -19.546784 -19.638008 -9.520322 24.132547 10.012827 -3.375228 -8.926869 0.905044 5.866785 0.000000 0.000000 0.000000 2.863674 -5.917768 -0.154204 0.000000 0.000000 0.000000 -0.022869 -0.819615 0.840745 -0.823334 -0.624444 0.627005 0.000000 0.000000 0.000000 -0.823270 -0.601840 0.646483 -2.579832 0.654492 -0.247271 0.000000 0.000000 0.000000 -0.823270 -0.601840 0.646483 -1.458354 10.059054 -4.090482 43.445010 -70.393371 -24.471557 0.000005 -21.018813 0.000012 0.000000 0.000000 0.000000 -0.823270 -0.601840 0.646483 3.766232 5.913816 1.450634 -4.418256 41.569358 64.993095 -0.000002 18.561978 0.000003 0.000000 0.000000 0.000000 
